<svg width="35" height="35" viewBox="0 0 35 35" fill="none" xmlns="http://www.w3.org/2000/svg">
  <path fill-rule="evenodd" clip-rule="evenodd" d="M17.5 4.375C21.0859 4.375 21.5109 4.38906 22.9234 4.45352C26.3156 4.6082 27.8922 6.18281 28.0469 9.57656C28.1113 10.9891 28.125 11.4141 28.125 15C28.125 18.5859 28.1109 19.0109 28.0465 20.4234C27.8918 23.8156 26.3172 25.3922 22.9234 25.5469C21.5109 25.6113 21.0859 25.625 17.5 25.625C13.9141 25.625 13.4891 25.6109 12.0766 25.5465C8.68437 25.3918 7.10781 23.8172 6.95312 20.4234C6.88867 19.0109 6.875 18.5859 6.875 15C6.875 11.4141 6.88906 10.9891 6.95352 9.57656C7.1082 6.18437 8.68281 4.60781 12.0766 4.45312C13.4891 4.38867 13.9141 4.375 17.5 4.375ZM17.5 6.27344C13.975 6.27344 13.5594 6.2875 12.1672 6.35117C9.91719 6.45391 8.94609 7.425 8.84336 9.675C8.77969 11.0672 8.76562 11.4828 8.76562 15.0078C8.76562 18.5328 8.77969 18.9484 8.84336 20.3406C8.94609 22.5906 9.91719 23.5617 12.1672 23.6645C13.5594 23.7281 13.975 23.7422 17.5 23.7422C21.025 23.7422 21.4406 23.7281 22.8328 23.6645C25.0828 23.5617 26.0539 22.5906 26.1566 20.3406C26.2203 18.9484 26.2344 18.5328 26.2344 15.0078C26.2344 11.4828 26.2203 11.0672 26.1566 9.675C26.0539 7.425 25.0828 6.45391 22.8328 6.35117C21.4406 6.2875 21.025 6.27344 17.5 6.27344ZM17.5 9.53125C20.52 9.53125 22.9688 11.98 22.9688 15C22.9688 18.02 20.52 20.4688 17.5 20.4688C14.48 20.4688 12.0312 18.02 12.0312 15C12.0312 11.98 14.48 9.53125 17.5 9.53125ZM17.5 11.4297C15.5281 11.4297 13.9297 13.0281 13.9297 15C13.9297 16.9719 15.5281 18.5703 17.5 18.5703C19.4719 18.5703 21.0703 16.9719 21.0703 15C21.0703 13.0281 19.4719 11.4297 17.5 11.4297ZM23.1875 8.03125C23.8778 8.03125 24.4375 8.59086 24.4375 9.28125C24.4375 9.97164 23.8778 10.5312 23.1875 10.5312C22.4971 10.5312 21.9375 9.97164 21.9375 9.28125C21.9375 8.59086 22.4971 8.03125 23.1875 8.03125Z" fill="#080909"/>
</svg>
